<?xml version="1.0" encoding="UTF-8"?>
<!DOCTYPE svg PUBLIC "-//W3C//DTD SVG 1.1//EN" "http://www.w3.org/Graphics/SVG/1.1/DTD/svg11.dtd">
<svg xmlns="http://www.w3.org/2000/svg" version="1.1" width="190px" height="177px" viewBox="0 0 3064 1417" style="shape-rendering:geometricPrecision; text-rendering:geometricPrecision; image-rendering:optimizeQuality; fill-rule:evenodd; clip-rule:evenodd" xmlns:xlink="http://www.w3.org/1999/xlink" class="h-12">
<g><path style="opacity:0.988" fill="#fefffe" d="M 137.5,113.5 C 250.833,113.5 364.167,113.5 477.5,113.5C 477.827,136.075 477.494,158.575 476.5,181C 433.168,181.5 389.835,181.667 346.5,181.5C 346.833,444.168 346.5,706.834 345.5,969.5C 333.044,970.157 320.544,970.491 308,970.5C 295.456,970.491 282.956,970.157 270.5,969.5C 269.5,706.834 269.167,444.168 269.5,181.5C 225.5,181.5 181.5,181.5 137.5,181.5C 137.5,158.833 137.5,136.167 137.5,113.5 Z"/></g>
<g><path style="opacity:0.982" fill="#fefffe" d="M 564.5,113.5 C 590.833,113.5 617.167,113.5 643.5,113.5C 643.5,238.5 643.5,363.5 643.5,488.5C 710.501,488.667 777.501,488.5 844.5,488C 845.428,487.612 846.095,486.945 846.5,486C 844.506,361.939 843.839,237.772 844.5,113.5C 870.833,113.5 897.167,113.5 923.5,113.5C 923.833,398.834 923.5,684.167 922.5,969.5C 897.543,970.657 872.543,970.824 847.5,970C 846.975,969.308 846.308,968.808 845.5,968.5C 845.167,900.333 844.833,832.167 844.5,764C 844.503,695.359 845.17,626.859 846.5,558.5C 778.837,557.5 711.17,557.167 643.5,557.5C 643.833,694.835 643.5,832.168 642.5,969.5C 617.209,970.657 591.876,970.824 566.5,970C 566,969.5 565.5,969 565,968.5C 564.5,683.5 564.333,398.5 564.5,113.5 Z"/></g>
<g><path style="opacity:0.979" fill="#fefffe" d="M 1055.5,113.5 C 1148.5,113.5 1241.5,113.5 1334.5,113.5C 1334.83,136.075 1334.49,158.575 1333.5,181C 1266.83,181.167 1200.16,181.667 1133.5,182.5C 1134.83,234.691 1135.5,287.024 1135.5,339.5C 1135.5,391.976 1134.83,444.309 1133.5,496.5C 1134.03,497.192 1134.69,497.692 1135.5,498C 1195.88,497.839 1256.05,498.672 1316,500.5C 1316.67,522.5 1316.67,544.5 1316,566.5C 1315.5,567 1315,567.5 1314.5,568C 1254.16,568.167 1193.83,568.667 1133.5,569.5C 1134.83,624.191 1135.5,679.025 1135.5,734C 1135.49,789.105 1134.83,844.105 1133.5,899C 1133.91,899.945 1134.57,900.612 1135.5,901C 1202.74,901.169 1269.9,901.669 1337,902.5C 1337.67,924.5 1337.67,946.5 1337,968.5C 1336.5,969 1336,969.5 1335.5,970C 1243.17,970.667 1150.83,970.667 1058.5,970C 1057.33,969.5 1056.5,968.667 1056,967.5C 1055.5,682.834 1055.33,398.167 1055.5,113.5 Z"/></g>
<g><path style="opacity:0.984" fill="#fefffe" d="M 1718.5,113.5 C 1808.83,113.333 1899.17,113.5 1989.5,114C 2008.98,120.141 2022.81,132.641 2031,151.5C 2031.03,155.768 2032.03,159.768 2034,163.5C 2034.67,415.5 2034.67,667.5 2034,919.5C 2032,925.412 2030.33,931.078 2029,936.5C 2027.26,939.216 2025.42,941.883 2023.5,944.5C 2022.68,945.386 2021.68,945.719 2020.5,945.5C 2019.76,948.809 2018.09,951.643 2015.5,954C 2010.6,957.936 2005.6,961.602 2000.5,965C 1994.93,966.77 1989.26,968.436 1983.5,970C 1896.83,970.667 1810.17,970.667 1723.5,970C 1693.05,962.219 1676.22,942.719 1673,911.5C 1672.33,664.833 1672.33,418.167 1673,171.5C 1673.65,163.916 1675.15,156.582 1677.5,149.5C 1680.89,144.764 1683.89,139.764 1686.5,134.5C 1695.51,124.598 1706.17,117.598 1718.5,113.5 Z M 1751.5,181.5 C 1820.17,181.5 1888.83,181.5 1957.5,181.5C 1957.17,420.873 1957.5,660.207 1958.5,899.5C 1958.29,900.086 1957.96,900.586 1957.5,901C 1888.83,901.5 1820.17,901.667 1751.5,901.5C 1751.5,661.5 1751.5,421.5 1751.5,181.5 Z"/></g>
<g><path style="opacity:0.986" fill="#fefffe" d="M 2166.5,113.5 C 2186.83,113.5 2207.17,113.5 2227.5,113.5C 2228.5,117.391 2229.34,121.391 2230,125.5C 2232.33,131.167 2234.67,136.833 2237,142.5C 2238,146.833 2239,151.167 2240,155.5C 2242.91,160.993 2245.58,166.659 2248,172.5C 2251.37,184.961 2255.53,196.961 2260.5,208.5C 2264.28,219.452 2268.28,230.285 2272.5,241C 2271.33,242.871 2271.83,244.371 2274,245.5C 2274.53,251.052 2276.53,256.052 2280,260.5C 2284.09,275.004 2288.93,289.671 2294.5,304.5C 2295.09,304.709 2295.59,305.043 2296,305.5C 2300.99,319.792 2305.66,334.125 2310,348.5C 2311.91,351.309 2313.58,354.309 2315,357.5C 2318.67,369.5 2322.33,381.5 2326,393.5C 2326.82,396.71 2328.48,399.377 2331,401.5C 2331.66,406.832 2333.33,411.832 2336,416.5C 2338.44,425.679 2341.11,434.679 2344,443.5C 2344.67,444.833 2345.67,445.833 2347,446.5C 2351.31,460.156 2355.64,473.822 2360,487.5C 2366.28,499.77 2370.94,512.77 2374,526.5C 2376.13,531.01 2377.97,535.676 2379.5,540.5C 2381.52,541.673 2382.18,543.173 2381.5,545C 2387.1,558.07 2391.6,571.57 2395,585.5C 2396,586.167 2397,586.833 2398,587.5C 2399.73,591.597 2400.73,595.931 2401,600.5C 2401.67,601.167 2402.33,601.833 2403,602.5C 2406.22,614.998 2410.55,626.998 2416,638.5C 2421.46,655.335 2427.12,672.002 2433,688.5C 2433.67,689.167 2434.33,689.833 2435,690.5C 2438.56,702.128 2442.23,713.795 2446,725.5C 2446.81,521.87 2446.65,317.87 2445.5,113.5C 2470.5,113.5 2495.5,113.5 2520.5,113.5C 2520.67,398.834 2520.5,684.167 2520,969.5C 2502.57,970.658 2485.07,970.825 2467.5,970C 2466.12,968.075 2464.62,966.241 2463,964.5C 2458.37,949.853 2453.71,935.186 2449,920.5C 2446.45,919.41 2445.62,917.743 2446.5,915.5C 2442.83,906.167 2439.17,896.833 2435.5,887.5C 2435.71,886.914 2436.04,886.414 2436.5,886C 2432.66,876.484 2428.66,866.984 2424.5,857.5C 2425.48,855.877 2424.98,854.543 2423,853.5C 2421.21,846.45 2419.21,839.45 2417,832.5C 2415.58,829.309 2413.91,826.309 2412,823.5C 2409.84,816.511 2407.84,809.511 2406,802.5C 2402.24,791.635 2397.9,780.968 2393,770.5C 2389.33,758.833 2385.67,747.167 2382,735.5C 2378.15,728.121 2374.81,720.455 2372,712.5C 2370.5,704.968 2368.5,697.634 2366,690.5C 2364.87,688.661 2364.04,686.661 2363.5,684.5C 2362.76,683.713 2361.92,683.047 2361,682.5C 2356.45,667.261 2351.45,652.261 2346,637.5C 2345.67,637.833 2345.33,638.167 2345,638.5C 2343.28,629.74 2340.45,621.407 2336.5,613.5C 2337.8,611.411 2337.3,609.744 2335,608.5C 2333.33,599.759 2330.17,591.759 2325.5,584.5C 2325.71,583.914 2326.04,583.414 2326.5,583C 2322.41,575.315 2319.58,567.148 2318,558.5C 2317.33,557.833 2316.67,557.167 2316,556.5C 2314.82,552.209 2313.82,547.876 2313,543.5C 2312,542.833 2311,542.167 2310,541.5C 2305.19,527.676 2300.86,513.676 2297,499.5C 2293.83,495.661 2291.83,490.661 2291,484.5C 2286.93,474.302 2283.27,463.969 2280,453.5C 2274.55,441.962 2270.22,429.962 2267,417.5C 2264.33,412.832 2262.66,407.832 2262,402.5C 2260.21,399.925 2258.55,397.259 2257,394.5C 2252.7,378.007 2247.04,362.007 2240,346.5C 2239.67,554.167 2239.33,761.833 2239,969.5C 2215.57,970.66 2192.07,970.827 2168.5,970C 2168,969.5 2167.5,969 2167,968.5C 2166.5,683.5 2166.33,398.5 2166.5,113.5 Z"/></g>
<g><path style="opacity:0.983" fill="#fefffe" d="M 2653.5,113.5 C 2746.17,113.5 2838.83,113.5 2931.5,113.5C 2931.83,136.075 2931.49,158.575 2930.5,181C 2864.17,181.5 2797.83,181.667 2731.5,181.5C 2731.5,287.167 2731.5,392.833 2731.5,498.5C 2791.83,498.333 2852.17,498.5 2912.5,499C 2913.16,510.426 2913.49,521.926 2913.5,533.5C 2913.49,545.225 2912.82,556.725 2911.5,568C 2851.5,568.5 2791.5,568.667 2731.5,568.5C 2731.5,679.5 2731.5,790.5 2731.5,901.5C 2798.83,901.5 2866.17,901.5 2933.5,901.5C 2933.5,924.5 2933.5,947.5 2933.5,970.5C 2840.46,970.831 2747.46,970.497 2654.5,969.5C 2653.5,684.167 2653.17,398.834 2653.5,113.5 Z"/></g>
<g><path style="opacity:0.935" fill="#fefffe" d="M 1066.5,1096.5 C 1091.17,1096.33 1115.84,1096.5 1140.5,1097C 1142.24,1098.62 1144.07,1100.12 1146,1101.5C 1146.26,1103.62 1147.26,1105.28 1149,1106.5C 1149.67,1135.83 1149.67,1165.17 1149,1194.5C 1145.79,1198.18 1142.29,1201.35 1138.5,1204C 1132.51,1204.5 1126.51,1204.67 1120.5,1204.5C 1125.41,1222.59 1131.57,1240.26 1139,1257.5C 1141.19,1267 1143.86,1276.33 1147,1285.5C 1149.24,1291.25 1151.74,1296.92 1154.5,1302.5C 1146.86,1303.5 1139.2,1303.83 1131.5,1303.5C 1131.66,1301.47 1131.5,1299.47 1131,1297.5C 1125.24,1281.38 1120.24,1265.04 1116,1248.5C 1115.31,1247.64 1114.48,1246.98 1113.5,1246.5C 1108.76,1231.26 1103.76,1216.09 1098.5,1201C 1098.83,1200.67 1099.17,1200.33 1099.5,1200C 1098.11,1197.22 1096.77,1194.38 1095.5,1191.5C 1097.42,1189.93 1098.42,1187.93 1098.5,1185.5C 1108.83,1185.5 1119.17,1185.5 1129.5,1185.5C 1129.5,1161.83 1129.5,1138.17 1129.5,1114.5C 1114.68,1114.02 1100.01,1114.52 1085.5,1116C 1086.5,1178.43 1086.83,1240.93 1086.5,1303.5C 1079.5,1303.5 1072.5,1303.5 1065.5,1303.5C 1065.17,1234.43 1065.5,1165.43 1066.5,1096.5 Z"/></g>
<g><path style="opacity:0.932" fill="#fefffe" d="M 1180.5,1096.5 C 1202.74,1096.17 1224.91,1096.51 1247,1097.5C 1247.81,1103.08 1247.64,1108.58 1246.5,1114C 1230.68,1114.02 1215.01,1114.68 1199.5,1116C 1200.83,1139.8 1200.83,1163.64 1199.5,1187.5C 1213.15,1188.33 1226.82,1188.83 1240.5,1189C 1241.42,1189.37 1242.25,1189.87 1243,1190.5C 1243.67,1195.5 1243.67,1200.5 1243,1205.5C 1242.25,1206.13 1241.42,1206.63 1240.5,1207C 1226.83,1207.33 1213.17,1207.67 1199.5,1208C 1200.83,1233.67 1200.83,1259.33 1199.5,1285C 1215.01,1286.32 1230.68,1286.98 1246.5,1287C 1247.47,1292.41 1247.81,1297.91 1247.5,1303.5C 1224.83,1303.5 1202.17,1303.5 1179.5,1303.5C 1179.17,1234.43 1179.5,1165.43 1180.5,1096.5 Z"/></g>
<g><path style="opacity:0.935" fill="#fefffe" d="M 1281.5,1096.5 C 1302.18,1096.17 1322.84,1096.5 1343.5,1097.5C 1346.4,1098.57 1348.9,1100.24 1351,1102.5C 1352,1105.17 1353,1107.83 1354,1110.5C 1354.67,1126.83 1354.67,1143.17 1354,1159.5C 1353.5,1160 1353,1160.5 1352.5,1161C 1346.5,1161.67 1340.5,1161.67 1334.5,1161C 1333.51,1145.58 1333.18,1130.08 1333.5,1114.5C 1319.83,1114.5 1306.17,1114.5 1292.5,1114.5C 1292.33,1128.17 1292.5,1141.84 1293,1155.5C 1300.27,1166.1 1308.27,1176.1 1317,1185.5C 1319.6,1191.36 1323.6,1196.03 1329,1199.5C 1335.63,1209.44 1342.96,1218.78 1351,1227.5C 1352,1230.83 1353,1234.17 1354,1237.5C 1354.67,1255.5 1354.67,1273.5 1354,1291.5C 1352.85,1296.14 1350.35,1299.81 1346.5,1302.5C 1324.17,1303.83 1301.83,1303.83 1279.5,1302.5C 1276.39,1300.56 1274.22,1297.89 1273,1294.5C 1272.17,1275.59 1272.34,1256.76 1273.5,1238C 1279.75,1237.19 1285.92,1237.36 1292,1238.5C 1292.5,1254.5 1292.67,1270.5 1292.5,1286.5C 1306.17,1286.5 1319.83,1286.5 1333.5,1286.5C 1333.67,1269.83 1333.5,1253.16 1333,1236.5C 1325.61,1228.43 1318.94,1219.77 1313,1210.5C 1307.56,1207.06 1303.56,1202.4 1301,1196.5C 1296.11,1191.71 1291.94,1186.38 1288.5,1180.5C 1282.38,1174.9 1277.21,1168.57 1273,1161.5C 1272.33,1143.17 1272.33,1124.83 1273,1106.5C 1274.04,1105.38 1274.71,1104.04 1275,1102.5C 1277.34,1100.6 1279.5,1098.6 1281.5,1096.5 Z"/></g>
<g><path style="opacity:0.94" fill="#fefffe" d="M 1389.5,1096.5 C 1395.43,1096.19 1401.26,1096.53 1407,1097.5C 1407.5,1166.17 1407.67,1234.83 1407.5,1303.5C 1401.17,1303.5 1394.83,1303.5 1388.5,1303.5C 1388.83,1235.79 1388.5,1168.13 1387.5,1100.5C 1388.18,1099.14 1388.85,1097.81 1389.5,1096.5 Z"/></g>
<g><path style="opacity:0.954" fill="#fefffe" d="M 1439.5,1096.5 C 1458.17,1096.33 1476.84,1096.5 1495.5,1097C 1499.94,1098.42 1504.27,1100.09 1508.5,1102C 1512.35,1106.34 1516.35,1110.51 1520.5,1114.5C 1522.56,1118.93 1524.06,1123.6 1525,1128.5C 1525.67,1176.5 1525.67,1224.5 1525,1272.5C 1524.06,1277.4 1522.56,1282.07 1520.5,1286.5C 1516.37,1290.46 1512.37,1294.63 1508.5,1299C 1505.2,1300.54 1501.87,1301.88 1498.5,1303C 1478.84,1303.5 1459.17,1303.67 1439.5,1303.5C 1439.49,1234.33 1439.49,1165.33 1439.5,1096.5 Z M 1459.5,1114.5 C 1470.17,1114.33 1480.84,1114.5 1491.5,1115C 1495.36,1118.2 1499.19,1121.36 1503,1124.5C 1503.47,1126.25 1504.14,1127.91 1505,1129.5C 1505.67,1176.83 1505.67,1224.17 1505,1271.5C 1504.14,1273.09 1503.47,1274.75 1503,1276.5C 1499.17,1279.67 1495.33,1282.83 1491.5,1286C 1480.84,1286.5 1470.17,1286.67 1459.5,1286.5C 1459.5,1229.17 1459.5,1171.83 1459.5,1114.5 Z"/></g>
<g><path style="opacity:0.932" fill="#fefffe" d="M 1556.5,1096.5 C 1579.08,1096.17 1601.58,1096.51 1624,1097.5C 1624.81,1103.08 1624.64,1108.58 1623.5,1114C 1607.35,1114.01 1591.35,1114.68 1575.5,1116C 1576.81,1140.12 1576.81,1164.29 1575.5,1188.5C 1589.5,1188.33 1603.5,1188.5 1617.5,1189C 1618.42,1189.37 1619.25,1189.87 1620,1190.5C 1620.67,1195.5 1620.67,1200.5 1620,1205.5C 1619.25,1206.13 1618.42,1206.63 1617.5,1207C 1603.5,1207.33 1589.5,1207.67 1575.5,1208C 1576.83,1233.67 1576.83,1259.33 1575.5,1285C 1591.35,1286.32 1607.35,1286.99 1623.5,1287C 1624.47,1292.41 1624.81,1297.91 1624.5,1303.5C 1601.5,1303.5 1578.5,1303.5 1555.5,1303.5C 1555.17,1234.43 1555.5,1165.43 1556.5,1096.5 Z"/></g>
<g><path style="opacity:0.933" fill="#fefffe" d="M 1649.5,1096.5 C 1654.18,1096.33 1658.85,1096.5 1663.5,1097C 1664.7,1097.9 1665.53,1099.07 1666,1100.5C 1668.47,1107.36 1670.47,1114.36 1672,1121.5C 1674.18,1123.87 1675.85,1126.54 1677,1129.5C 1679.46,1139.25 1682.62,1148.75 1686.5,1158C 1686.17,1158.33 1685.83,1158.67 1685.5,1159C 1688.21,1163.76 1690.05,1168.93 1691,1174.5C 1692.15,1177.46 1693.82,1180.13 1696,1182.5C 1699.67,1194.5 1703.33,1206.5 1707,1218.5C 1709.67,1223.17 1711.34,1228.17 1712,1233.5C 1713.42,1235.34 1714.59,1237.34 1715.5,1239.5C 1715.35,1192.27 1715.52,1144.93 1716,1097.5C 1722.33,1096.17 1728.67,1096.17 1735,1097.5C 1735.5,1166.17 1735.67,1234.83 1735.5,1303.5C 1730.46,1303.83 1725.46,1303.49 1720.5,1302.5C 1718.05,1297.36 1716.22,1292.02 1715,1286.5C 1713.09,1283.69 1711.42,1280.69 1710,1277.5C 1702.85,1252.82 1694.19,1228.49 1684,1204.5C 1681.88,1197.62 1679.88,1190.62 1678,1183.5C 1676.77,1180.17 1675.1,1177.17 1673,1174.5C 1672.94,1170.61 1671.77,1167.11 1669.5,1164C 1670.6,1162.87 1670.27,1162.04 1668.5,1161.5C 1667.5,1208.83 1667.17,1256.16 1667.5,1303.5C 1661.17,1303.5 1654.83,1303.5 1648.5,1303.5C 1648.17,1234.43 1648.5,1165.43 1649.5,1096.5 Z"/></g>
<g><path style="opacity:0.955" fill="#fefffe" d="M 1776.5,1096.5 C 1797.17,1096.33 1817.84,1096.5 1838.5,1097C 1841.27,1098.47 1843.77,1100.3 1846,1102.5C 1847.49,1107 1848.99,1111.5 1850.5,1116C 1849.17,1129.47 1849.17,1142.97 1850.5,1156.5C 1850.1,1158.43 1849.1,1159.93 1847.5,1161C 1841.83,1161.67 1836.17,1161.67 1830.5,1161C 1828.53,1145.74 1827.86,1130.24 1828.5,1114.5C 1814.17,1114.5 1799.83,1114.5 1785.5,1114.5C 1785.5,1171.83 1785.5,1229.17 1785.5,1286.5C 1799.83,1286.5 1814.17,1286.5 1828.5,1286.5C 1827.86,1270.09 1828.52,1253.93 1830.5,1238C 1836.86,1237.17 1843.19,1237.34 1849.5,1238.5C 1849.93,1239.29 1850.26,1240.13 1850.5,1241C 1849.85,1257.81 1849.19,1274.65 1848.5,1291.5C 1847.07,1293.82 1846.07,1296.32 1845.5,1299C 1843.83,1300.33 1842.17,1301.67 1840.5,1303C 1818.5,1303.67 1796.5,1303.67 1774.5,1303C 1770.25,1301.09 1767.42,1297.92 1766,1293.5C 1765.33,1231.5 1765.33,1169.5 1766,1107.5C 1767.42,1105.65 1768.59,1103.65 1769.5,1101.5C 1772.04,1100.01 1774.37,1098.34 1776.5,1096.5 Z"/></g>
<g><path style="opacity:0.931" fill="#fefffe" d="M 1877.5,1096.5 C 1899.5,1096.33 1921.5,1096.5 1943.5,1097C 1944.83,1102.67 1944.83,1108.33 1943.5,1114C 1928.17,1114.5 1912.84,1114.67 1897.5,1114.5C 1897.5,1139.17 1897.5,1163.83 1897.5,1188.5C 1910.84,1188.33 1924.17,1188.5 1937.5,1189C 1938.42,1189.37 1939.25,1189.87 1940,1190.5C 1940.67,1195.5 1940.67,1200.5 1940,1205.5C 1939.25,1206.13 1938.42,1206.63 1937.5,1207C 1924.17,1207.5 1910.84,1207.67 1897.5,1207.5C 1897.5,1233.83 1897.5,1260.17 1897.5,1286.5C 1912.84,1286.33 1928.17,1286.5 1943.5,1287C 1944.47,1292.41 1944.81,1297.91 1944.5,1303.5C 1921.83,1303.5 1899.17,1303.5 1876.5,1303.5C 1876.17,1234.46 1876.51,1165.46 1877.5,1096.5 Z"/></g>
<g><path style="opacity:0.935" fill="#fefffe" d="M 1978.5,1096.5 C 1999.17,1096.33 2019.84,1096.5 2040.5,1097C 2045.76,1099.26 2049.26,1103.09 2051,1108.5C 2051.67,1125.5 2051.67,1142.5 2051,1159.5C 2047.94,1160.78 2044.6,1161.45 2041,1161.5C 2037.83,1161.33 2034.67,1161.17 2031.5,1161C 2030.51,1145.58 2030.18,1130.08 2030.5,1114.5C 2016.83,1114.5 2003.17,1114.5 1989.5,1114.5C 1989.33,1128.17 1989.5,1141.84 1990,1155.5C 1991,1157.5 1992,1159.5 1993,1161.5C 2010.69,1183.68 2028.86,1205.35 2047.5,1226.5C 2048.12,1229.44 2049.28,1232.1 2051,1234.5C 2051.67,1253.5 2051.67,1272.5 2051,1291.5C 2049.86,1296.1 2047.36,1299.77 2043.5,1302.5C 2021.17,1303.83 1998.83,1303.83 1976.5,1302.5C 1973.63,1300.42 1971.46,1297.76 1970,1294.5C 1969.17,1275.59 1969.34,1256.76 1970.5,1238C 1976.5,1237.33 1982.5,1237.33 1988.5,1238C 1989.17,1239 1989.83,1240 1990.5,1241C 1989.51,1256.09 1989.18,1271.26 1989.5,1286.5C 2003.17,1286.5 2016.83,1286.5 2030.5,1286.5C 2030.67,1269.83 2030.5,1253.16 2030,1236.5C 2026.78,1233.38 2024.61,1229.71 2023.5,1225.5C 2017.54,1222.03 2013.04,1217.03 2010,1210.5C 2007.63,1207.79 2004.96,1205.46 2002,1203.5C 1996.43,1196.05 1991.1,1188.38 1986,1180.5C 1979.24,1175 1973.91,1168.33 1970,1160.5C 1969.33,1142.5 1969.33,1124.5 1970,1106.5C 1971.95,1102.39 1974.78,1099.05 1978.5,1096.5 Z"/></g>
</svg>
